# Blender 5.0.1
# www.blender.org
mtllib book_mesh.mtl
o Cube.002
v 1.291499 -2.100000 -0.150000
v 1.291501 2.099999 -0.150000
v -1.291501 -2.099999 -0.150000
v -1.291499 2.100000 -0.150000
v 1.291499 -2.100000 0.150000
v 1.291501 2.099999 0.150000
v -1.291501 -2.099999 0.150000
v -1.291499 2.100000 0.150000
vn -0.0000 -1.0000 -0.0000
vn -1.0000 -0.0000 -0.0000
vn -0.0000 -0.0000 1.0000
vn -0.0000 1.0000 -0.0000
vn -0.0000 -0.0000 -1.0000
vn 1.0000 -0.0000 -0.0000
vt 1.000000 0.567141
vt 0.950544 0.567141
vt 0.950544 0.143555
vt 1.000000 0.143555
vt 0.851632 0.835938
vt 0.851632 0.146015
vt 0.900600 0.143555
vt 0.900600 0.835938
vt 0.000000 0.835938
vt 0.000000 0.146015
vt 0.427281 0.146015
vt 0.427281 0.835938
vt 1.000000 0.995187
vt 0.950544 0.995187
vt 0.950544 0.569371
vt 1.000000 0.569371
vt 0.427525 0.835938
vt 0.427525 0.146015
vt 0.901088 0.835938
vt 0.901088 0.144717
vt 0.952253 0.144717
vt 0.952253 0.835938
s 0
usemtl Conquest
f 1/1/1 5/2/1 7/3/1 3/4/1
f 4/5/2 3/6/2 7/7/2 8/8/2
f 8/9/3 7/10/3 5/11/3 6/12/3
f 6/13/4 2/14/4 4/15/4 8/16/4
f 2/17/5 1/18/5 3/6/5 4/5/5
f 6/19/6 5/20/6 1/21/6 2/22/6
